RBDS08runT25_grf
version=1
nRows=21
nColumns=19
inDegrees=no
endheader
time	ground_force_r_vx	ground_force_r_vy	ground_force_r_vz	ground_force_r_px	ground_force_r_py	ground_force_r_pz	ground_force_r_mx	ground_force_r_my	ground_force_r_mz	ground_force_l_vx	ground_force_l_vy	ground_force_l_vz	ground_force_l_px	ground_force_l_py	ground_force_l_pz	ground_force_l_mx	ground_force_l_my	ground_force_l_mz
     22.49800000	      0.00000000	      0.00000000	      0.00000000	      0.00000000	      0.00000000	      0.00000000	      0.00000000	      0.00000000	      0.00000000	   -150.42570548	   1326.09233242	     41.40935008	      2.19641367	      0.00000000	      0.93738602	      0.00000000	      7.29439673	      0.00000000
     22.49900000	      0.00000000	      0.00000000	      0.00000000	      0.00000000	      0.00000000	      0.00000000	      0.00000000	      0.00000000	      0.00000000	   -150.53643362	   1335.47173756	     42.07714752	      2.19471726	      0.00000000	      0.93739364	      0.00000000	      7.37007318	      0.00000000
     22.50000000	      0.00000000	      0.00000000	      0.00000000	      0.00000000	      0.00000000	      0.00000000	      0.00000000	      0.00000000	      0.00000000	   -150.64716176	   1344.85114270	     42.74494496	      2.19302086	      0.00000000	      0.93740125	      0.00000000	      7.44574962	      0.00000000
     22.50100000	      0.00000000	      0.00000000	      0.00000000	      0.00000000	      0.00000000	      0.00000000	      0.00000000	      0.00000000	      0.00000000	   -150.40319876	   1353.47517671	     43.42971190	      2.19125841	      0.00000000	      0.93740546	      0.00000000	      7.52103035	      0.00000000
     22.50200000	      0.00000000	      0.00000000	      0.00000000	      0.00000000	      0.00000000	      0.00000000	      0.00000000	      0.00000000	      0.00000000	   -150.15923577	   1362.09921072	     44.11447884	      2.18949596	      0.00000000	      0.93740968	      0.00000000	      7.59631108	      0.00000000
     22.50300000	      0.00000000	      0.00000000	      0.00000000	      0.00000000	      0.00000000	      0.00000000	      0.00000000	      0.00000000	      0.00000000	   -149.91527277	   1370.72324473	     44.79924577	      2.18773351	      0.00000000	      0.93741389	      0.00000000	      7.67159181	      0.00000000
     22.50400000	      0.00000000	      0.00000000	      0.00000000	      0.00000000	      0.00000000	      0.00000000	      0.00000000	      0.00000000	      0.00000000	   -149.43233642	   1378.85493066	     45.49376441	      2.18593139	      0.00000000	      0.93741584	      0.00000000	      7.74732605	      0.00000000
     22.50500000	      0.00000000	      0.00000000	      0.00000000	      0.00000000	      0.00000000	      0.00000000	      0.00000000	      0.00000000	      0.00000000	   -148.82991340	   1386.74044254	     46.19315891	      2.18410943	      0.00000000	      0.93741666	      0.00000000	      7.82328705	      0.00000000
     22.50600000	      0.00000000	      0.00000000	      0.00000000	      0.00000000	      0.00000000	      0.00000000	      0.00000000	      0.00000000	      0.00000000	   -148.22749038	   1394.62595443	     46.89255340	      2.18228747	      0.00000000	      0.93741747	      0.00000000	      7.89924805	      0.00000000
     22.50700000	      0.00000000	      0.00000000	      0.00000000	      0.00000000	      0.00000000	      0.00000000	      0.00000000	      0.00000000	      0.00000000	   -147.50789053	   1402.26688629	     47.59555492	      2.18044813	      0.00000000	      0.93741716	      0.00000000	      7.97567215	      0.00000000
     22.50800000	      0.00000000	      0.00000000	      0.00000000	      0.00000000	      0.00000000	      0.00000000	      0.00000000	      0.00000000	      0.00000000	   -146.55393700	   1409.41865811	     48.30577052	      2.17857404	      0.00000000	      0.93741460	      0.00000000	      8.05302247	      0.00000000
     22.50900000	      0.00000000	      0.00000000	      0.00000000	      0.00000000	      0.00000000	      0.00000000	      0.00000000	      0.00000000	      0.00000000	   -145.59998347	   1416.57042992	     49.01598611	      2.17669996	      0.00000000	      0.93741204	      0.00000000	      8.13037278	      0.00000000
     22.51000000	      0.00000000	      0.00000000	      0.00000000	      0.00000000	      0.00000000	      0.00000000	      0.00000000	      0.00000000	      0.00000000	   -144.64602995	   1423.72220174	     49.72620170	      2.17482587	      0.00000000	      0.93740947	      0.00000000	      8.20772310	      0.00000000
     22.51100000	      0.00000000	      0.00000000	      0.00000000	      0.00000000	      0.00000000	      0.00000000	      0.00000000	      0.00000000	      0.00000000	   -143.35738610	   1430.13414732	     50.44237996	      2.17290771	      0.00000000	      0.93740358	      0.00000000	      8.28684851	      0.00000000
     22.51200000	      0.00000000	      0.00000000	      0.00000000	      0.00000000	      0.00000000	      0.00000000	      0.00000000	      0.00000000	      0.00000000	   -142.06874226	   1436.54609290	     51.15855821	      2.17098955	      0.00000000	      0.93739769	      0.00000000	      8.36597393	      0.00000000
     22.51300000	      0.00000000	      0.00000000	      0.00000000	      0.00000000	      0.00000000	      0.00000000	      0.00000000	      0.00000000	      0.00000000	   -140.78009841	   1442.95803848	     51.87473646	      2.16907139	      0.00000000	      0.93739180	      0.00000000	      8.44509934	      0.00000000
     22.51400000	      0.00000000	      0.00000000	      0.00000000	      0.00000000	      0.00000000	      0.00000000	      0.00000000	      0.00000000	      0.00000000	   -139.28536205	   1448.86663596	     52.59118932	      2.16712955	      0.00000000	      0.93738374	      0.00000000	      8.52548462	      0.00000000
     22.51500000	      0.00000000	      0.00000000	      0.00000000	      0.00000000	      0.00000000	      0.00000000	      0.00000000	      0.00000000	      0.00000000	   -137.68757943	   1454.52355939	     53.30777947	      2.16517588	      0.00000000	      0.93737461	      0.00000000	      8.60649984	      0.00000000
     22.51600000	      0.00000000	      0.00000000	      0.00000000	      0.00000000	      0.00000000	      0.00000000	      0.00000000	      0.00000000	      0.00000000	   -136.08979682	   1460.18048282	     54.02436962	      2.16322220	      0.00000000	      0.93736548	      0.00000000	      8.68751505	      0.00000000
     22.51700000	      0.00000000	      0.00000000	      0.00000000	      0.00000000	      0.00000000	      0.00000000	      0.00000000	      0.00000000	      0.00000000	   -134.39988059	   1465.57835360	     54.73911133	      2.16125963	      0.00000000	      0.93735532	      0.00000000	      8.76912642	      0.00000000
     22.51800000	      0.00000000	      0.00000000	      0.00000000	      0.00000000	      0.00000000	      0.00000000	      0.00000000	      0.00000000	      0.00000000	   -132.52569714	   1470.45811909	     55.45015618	      2.15927928	      0.00000000	      0.93734308	      0.00000000	      8.85193010	      0.00000000
